<?xml version="1.0" standalone="no"?>
<!DOCTYPE svg PUBLIC "-//W3C//DTD SVG 20010904//EN"
 "http://www.w3.org/TR/2001/REC-SVG-20010904/DTD/svg10.dtd">
<svg version="1.0" xmlns="http://www.w3.org/2000/svg"
 width="749.000000pt" height="725.000000pt" viewBox="0 0 749.000000 725.000000"
 preserveAspectRatio="xMidYMid meet">

<g transform="translate(0.000000,725.000000) scale(0.100000,-0.100000)"
fill="#000000" stroke="none">
<path d="M0 3625 l0 -3625 3745 0 3745 0 0 3625 0 3625 -3745 0 -3745 0 0
-3625z m3469 2558 c9 3 23 6 31 8 10 3 25 -16 45 -55 23 -45 42 -66 82 -92 60
-38 153 -129 153 -149 0 -7 4 -15 9 -17 5 -1 25 -34 45 -72 20 -38 40 -74 44
-80 8 -13 31 -74 37 -99 2 -9 7 -22 11 -28 3 -6 0 -15 -7 -20 -11 -7 -11 -9 2
-9 16 0 52 -85 68 -160 4 -19 26 -77 49 -129 37 -83 40 -93 22 -88 -13 3 -20
0 -20 -9 0 -28 -17 -13 -30 26 -17 51 -32 65 -58 51 -15 -8 -23 -6 -37 9 -10
11 -20 19 -24 18 -32 -6 -139 88 -120 107 14 14 11 22 -11 28 -20 5 -26 -3
-13 -17 4 -3 8 -17 10 -29 2 -12 15 -57 29 -100 21 -64 31 -80 53 -88 14 -5
34 -14 44 -19 12 -7 17 -7 17 2 1 8 6 6 14 -4 20 -26 27 -22 16 10 -8 23 -8
24 3 9 32 -49 33 -49 33 -28 0 11 -5 17 -10 14 -5 -4 -7 1 -3 11 4 10 2 26 -3
37 -6 10 -8 19 -5 19 2 0 24 -37 46 -82 43 -85 56 -133 39 -143 -6 -3 -7 1 -4
9 7 18 -7 21 -22 6 -13 -13 -86 -16 -105 -5 -12 8 -12 6 0 -8 9 -11 10 -17 2
-17 -6 0 -17 12 -23 26 -15 31 -25 29 -126 -28 -136 -76 -348 -309 -422 -463
-15 -33 -40 -96 -54 -140 -83 -260 -55 -465 96 -696 56 -86 147 -194 155 -185
3 3 -11 56 -31 119 -87 276 -93 432 -25 659 42 143 146 338 179 338 23 0 33
-13 65 -90 83 -198 110 -368 102 -653 -4 -177 -8 -214 -31 -295 -14 -51 -26
-99 -26 -105 0 -16 101 99 128 147 70 121 112 266 127 439 11 130 99 358 179
464 80 106 270 273 310 273 2 0 12 -7 20 -16 29 -28 11 -258 -30 -404 -57
-201 -236 -435 -433 -566 -48 -32 -73 -56 -80 -77 -6 -16 -10 -32 -8 -33 2 -2
25 11 53 30 27 18 69 44 95 58 25 14 88 59 141 99 52 41 154 119 226 174 119
90 132 103 132 131 0 17 7 37 16 45 10 8 14 22 11 38 -3 14 -1 34 4 43 11 21
37 24 45 5 2 -7 20 -13 39 -13 45 0 47 23 5 66 -31 32 -34 38 -24 64 9 23 33
20 60 -9 30 -32 50 -33 29 -1 -9 13 -14 28 -13 32 2 5 -7 19 -19 31 -27 27
-20 53 15 53 14 0 34 8 44 17 27 25 46 3 31 -36 -11 -31 -6 -81 8 -81 5 0 9 8
9 18 0 10 6 27 14 38 13 16 18 17 35 7 22 -14 34 -3 25 22 -5 11 -14 15 -28
11 -12 -3 -27 -1 -35 3 -14 9 -12 17 9 54 5 9 14 25 19 35 13 26 40 27 49 1 8
-22 9 -21 20 9 7 21 18 32 30 32 12 0 24 11 32 29 21 51 60 52 60 2 0 -31 -16
-51 -41 -51 -9 0 -20 -7 -23 -16 -12 -31 -6 -37 17 -17 12 11 32 26 45 32 15
8 22 21 22 39 0 35 26 72 51 72 14 0 19 -7 19 -24 0 -14 -5 -28 -11 -32 -6 -3
-8 -16 -5 -29 5 -19 -3 -30 -45 -61 -46 -36 -48 -39 -27 -44 14 -4 23 -13 23
-25 0 -16 -8 -21 -42 -23 -47 -3 -55 -15 -22 -32 27 -15 22 -54 -7 -58 -14 -2
-29 6 -42 23 -21 27 -52 31 -59 8 -2 -6 6 -13 19 -15 60 -8 -16 -86 -85 -88
-17 0 -26 -4 -22 -10 4 -7 24 -8 51 -4 36 5 44 3 44 -10 0 -8 -10 -21 -22 -27
-13 -7 -28 -18 -35 -24 -6 -7 -23 -10 -37 -8 -20 4 -26 0 -32 -21 -3 -14 -14
-28 -24 -31 -12 -4 -16 -13 -12 -30 3 -20 0 -25 -16 -25 -12 0 -27 9 -35 20
-9 13 -20 18 -31 14 -35 -13 -7 -58 31 -48 13 4 22 0 26 -10 10 -24 25 -19 42
14 17 32 51 41 61 15 4 -8 15 -15 25 -15 10 0 19 -7 19 -15 0 -11 11 -15 36
-15 19 0 33 4 30 9 -3 5 -14 7 -24 4 -24 -6 -56 40 -47 67 8 24 40 26 49 3 6
-14 10 -11 26 15 19 31 50 44 50 20 0 -6 19 -28 41 -48 43 -39 45 -60 6 -60
-31 -1 -57 -23 -57 -49 0 -21 -3 -22 -40 -16 -38 6 -40 6 -40 -19 0 -26 -22
-36 -35 -16 -3 6 -17 10 -31 10 -17 0 -24 -5 -24 -19 0 -26 -17 -36 -35 -21
-18 15 -19 52 -3 68 16 16 4 25 -21 17 -16 -5 -19 -12 -14 -36 7 -35 -15 -40
-53 -10 -24 19 -28 19 -77 4 -156 -45 -265 -100 -347 -173 -32 -29 -33 -31
-10 -25 14 3 90 20 170 37 139 29 152 30 335 25 156 -4 204 -9 265 -26 95 -28
120 -44 120 -78 0 -71 -220 -198 -440 -254 -118 -30 -135 -32 -315 -33 -128 0
-227 5 -305 17 -63 9 -142 17 -174 18 l-59 3 -51 -55 c-28 -30 -69 -76 -91
-103 -37 -46 -38 -49 -21 -62 11 -7 59 -28 108 -45 49 -18 91 -36 94 -40 13
-21 -144 -49 -276 -49 l-68 0 -39 -63 c-94 -146 -216 -379 -242 -459 -10 -30
-18 -38 -36 -38 -13 0 -26 4 -30 10 -9 15 181 378 262 502 14 21 23 41 20 45
-4 3 -55 18 -115 33 -212 54 -350 130 -496 275 -209 207 -316 459 -316 740 0
84 42 242 89 339 85 174 253 367 391 451 33 20 60 41 60 46 0 6 5 7 12 3 7 -5
8 -3 3 5 -5 9 -13 7 -29 -8 -26 -25 -36 -26 -36 -6 0 10 -10 15 -33 15 -29 0
-89 29 -61 30 6 0 14 -3 18 -7 11 -12 56 -14 56 -3 0 5 -3 9 -7 9 -5 -1 -17
-1 -28 0 -17 1 -18 3 -5 11 12 8 12 10 -5 10 -18 1 -18 2 3 10 12 5 22 12 22
14 0 3 -6 3 -14 0 -7 -3 -16 2 -19 10 -4 9 -14 16 -24 16 -13 0 -14 3 -5 12 7
7 12 34 12 60 0 26 3 48 6 48 3 0 17 -9 31 -20 14 -11 22 -20 18 -20 -5 0 -17
7 -27 17 -17 15 -18 15 -18 -1 0 -10 10 -27 23 -37 l22 -20 -22 11 c-20 9 -23
8 -23 -10 0 -12 7 -20 18 -21 10 0 12 -3 5 -6 -21 -8 -15 -20 13 -27 20 -5 24
-10 15 -19 -17 -17 -14 -24 14 -31 17 -4 23 -11 18 -19 -4 -7 1 -6 11 3 17 13
16 15 -15 25 -28 10 -30 12 -14 19 11 4 21 3 23 -3 3 -8 10 -8 23 0 11 5 24 7
29 4 6 -3 10 -3 11 2 0 4 2 16 4 26 2 9 -1 17 -6 17 -6 0 -8 4 -5 9 3 5 -1 11
-9 15 -8 3 -15 11 -15 18 0 9 3 9 11 -2 8 -12 10 -12 7 -1 -6 21 -48 22 -48 0
0 -9 6 -19 14 -22 8 -3 20 -16 27 -29 l12 -23 -25 23 c-21 19 -26 21 -31 8 -4
-9 -1 -15 5 -13 6 1 13 -4 15 -11 4 -10 -4 -9 -28 3 -44 22 -50 29 -19 20 22
-7 23 -6 11 9 -11 13 -11 16 0 16 10 0 10 3 2 11 -6 6 -9 18 -6 25 3 8 -1 22
-8 32 -13 16 -12 16 7 0 26 -22 41 -23 23 -2 -7 9 -14 23 -15 32 -2 8 -13 25
-25 36 -21 20 -22 20 -8 1 13 -18 13 -19 -3 -6 -20 15 -25 2 -7 -16 9 -9 6
-10 -10 -6 -20 5 -20 7 -8 27 8 11 21 22 30 24 18 4 81 -83 72 -98 -10 -17 79
20 103 43 l24 22 -6 -35 c-3 -19 -3 -29 0 -22 3 6 10 10 15 7 5 -4 6 7 3 24
-5 23 -2 32 14 40 22 12 62 15 62 5 0 -14 -54 -104 -62 -104 -5 0 -7 -4 -4 -9
3 -5 -8 -27 -24 -50 -33 -45 -21 -56 23 -21 33 26 49 26 18 0 -28 -24 -15 -27
18 -3 18 12 23 13 19 2 -2 -8 -31 -23 -63 -35 -33 -12 -61 -26 -63 -33 -5 -14
-5 -14 64 10 68 24 169 40 266 43 52 1 73 6 94 24 16 12 30 18 33 14 4 -5 20
1 38 14 18 12 30 24 27 27 -3 3 3 3 15 0 12 -3 21 -1 21 5 0 13 -26 23 -45 16
-17 -7 -20 7 -5 22 7 7 -3 8 -28 5 -20 -2 -31 -6 -24 -8 6 -3 10 -9 6 -14 -3
-5 0 -8 7 -7 17 4 24 -31 10 -45 -8 -8 -11 -6 -11 6 0 9 -6 17 -14 17 -7 0
-19 7 -26 15 -7 8 -24 15 -37 15 -23 0 -24 -2 -12 -17 8 -10 9 -14 2 -10 -6 4
-14 3 -18 -3 -4 -6 -12 -7 -18 -3 -25 16 -80 0 -120 -35 -19 -17 -32 -11 -24
11 8 21 100 73 105 59 4 -14 22 -6 22 9 0 6 -3 8 -7 6 -5 -3 -8 23 -9 56 -1
73 -29 143 -78 197 -41 46 -91 129 -82 137 3 4 7 4 9 2 34 -44 49 -61 44 -46
-4 9 -2 17 3 17 6 0 11 -4 11 -10 1 -5 2 -15 3 -22 0 -6 7 -13 15 -16 9 -3 11
0 7 9 -4 8 -1 6 7 -4 14 -16 15 -16 20 5 6 21 -9 41 -24 32 -4 -2 -11 1 -15 7
-4 8 -3 9 4 5 7 -4 12 -1 12 6 0 9 3 9 10 -2 8 -13 10 -12 10 3 0 9 -3 17 -8
17 -4 0 -7 18 -6 40 0 22 -3 40 -9 40 -5 0 -7 9 -4 19 3 13 -3 23 -19 31 -12
7 -25 19 -28 27 -3 8 -2 12 3 8 11 -6 8 21 -3 32 -4 4 -11 1 -16 -7 -7 -12
-10 -11 -16 4 -4 11 -2 21 7 27 11 7 12 12 2 28 -11 17 -10 19 2 15 12 -5 14
2 11 35 -2 22 1 38 5 35 5 -3 9 0 9 7 0 7 3 10 6 7 3 -4 1 -15 -5 -26 -13 -24
-5 -52 14 -52 18 0 26 25 12 39 -6 6 -8 14 -4 17 3 4 11 -4 17 -18 9 -18 20
-25 40 -25 16 0 27 4 24 9 -3 4 4 8 16 8 12 0 18 4 15 11 -4 6 -13 8 -19 6 -7
-3 -19 -1 -27 4 -9 6 1 7 29 5 35 -3 41 -2 32 9 -7 8 -9 19 -5 25 3 5 2 10 -4
10 -15 0 -63 47 -53 52 6 2 6 12 1 26 -5 13 -14 20 -20 16 -8 -4 -7 -9 2 -15
11 -8 11 -11 -3 -20 -10 -5 -18 -21 -18 -34 0 -32 -10 -56 -21 -49 -5 3 -9 10
-9 15 0 6 5 7 10 4 6 -3 10 3 10 14 0 12 -6 21 -12 21 -7 0 -24 3 -38 5 -22 5
-22 4 -5 -4 18 -9 18 -10 -5 -9 -14 1 -35 -2 -47 -6 -15 -5 -23 -3 -23 4 0 7
-7 9 -15 6 -28 -11 -28 23 1 61 24 32 28 34 34 18 5 -13 9 -15 14 -7 4 7 20
12 37 12 16 0 29 5 29 11 0 6 7 3 16 -6 10 -9 24 -15 33 -12z m41 -93 c0 -5
-2 -10 -4 -10 -3 0 -8 5 -11 10 -3 6 -1 10 4 10 6 0 11 -4 11 -10z m-125 -9
c-9 -8 -36 -10 -30 -2 2 4 11 8 20 8 8 0 13 -3 10 -6z m103 -26 c-3 -3 -9 2
-12 12 -6 14 -5 15 5 6 7 -7 10 -15 7 -18z m-138 0 c11 -13 10 -14 -4 -9 -9 3
-16 10 -16 15 0 13 6 11 20 -6z m190 5 c0 -5 -2 -10 -4 -10 -3 0 -8 5 -11 10
-3 6 -1 10 4 10 6 0 11 -4 11 -10z m-60 -30 c0 -5 -2 -10 -4 -10 -3 0 -8 5
-11 10 -3 6 -1 10 4 10 6 0 11 -4 11 -10z m-138 -70 c-15 -25 -15 -47 1 -53 9
-3 9 -9 -1 -29 -15 -28 -12 -64 5 -61 6 1 17 -4 24 -13 10 -13 8 -13 -15 -5
-14 6 -26 7 -27 3 0 -4 -4 2 -9 13 -11 25 -12 87 -4 149 6 43 8 46 23 32 13
-13 13 -20 3 -36z m58 -125 c7 -8 8 -15 2 -15 -5 0 -15 7 -22 15 -7 8 -8 15
-2 15 5 0 15 -7 22 -15z m-46 -61 c3 -9 6 -25 6 -37 -1 -17 -2 -19 -9 -7 -16
27 -22 60 -13 60 6 0 13 -7 16 -16z m81 -4 c3 -5 2 -10 -4 -10 -5 0 -13 5 -16
10 -3 6 -2 10 4 10 5 0 13 -4 16 -10z m-30 -30 c3 -5 1 -10 -4 -10 -6 0 -11 5
-11 10 0 6 2 10 4 10 3 0 8 -4 11 -10z m865 -296 c0 -14 -21 -19 -33 -7 -9 9
13 34 24 27 5 -3 9 -12 9 -20z m64 -97 c15 -11 17 -17 7 -35 -15 -27 -33 -28
-56 -2 -18 20 -18 21 1 35 24 18 26 18 48 2z m-264 -22 c0 -8 -4 -15 -10 -15
-5 0 -10 7 -10 15 0 8 5 15 10 15 6 0 10 -7 10 -15z m95 5 c3 -6 -1 -13 -10
-16 -19 -8 -30 0 -20 15 8 14 22 14 30 1z m-545 -96 c0 -12 -5 -26 -12 -30 -8
-5 -9 -2 -5 9 4 11 1 17 -8 17 -17 0 -28 16 -21 29 11 18 46 -1 46 -25z m220
-2 c0 -15 -2 -15 -10 -2 -13 20 -13 33 0 25 6 -3 10 -14 10 -23z m61 5 c22 4
29 2 29 -10 0 -24 -67 -19 -74 6 -3 14 -2 17 6 9 6 -6 24 -8 39 -5z m325 -11
c19 -15 18 -15 -7 -41 l-25 -26 -24 26 c-23 25 -23 25 -4 40 24 18 35 18 60 1z
m582 -14 c2 -7 -6 -12 -17 -12 -21 0 -27 11 -14 24 9 9 26 2 31 -12z m-1283
-2 c-3 -5 -11 -10 -16 -10 -6 0 -7 5 -4 10 3 6 11 10 16 10 6 0 7 -4 4 -10z
m-531 -15 c-4 -8 -8 -15 -10 -15 -2 0 -4 7 -4 15 0 8 4 15 10 15 5 0 7 -7 4
-15z m1468 -17 c-15 -15 -26 -4 -18 18 5 13 9 15 18 6 9 -9 9 -15 0 -24z m-86
11 c10 -17 -13 -36 -27 -22 -12 12 -4 33 11 33 5 0 12 -5 16 -11z m26 -94 c0
-5 -5 -11 -11 -13 -6 -2 -11 4 -11 13 0 9 5 15 11 13 6 -2 11 -8 11 -13z m-66
-37 c7 -35 16 -46 44 -60 40 -20 46 -41 13 -46 -28 -4 -44 -24 -52 -65 -9 -42
-31 -41 -46 2 -12 36 -21 44 -67 61 -38 13 -35 27 9 45 43 18 53 30 53 66 0
55 33 53 46 -3z m415 -38 c24 -13 24 -32 1 -53 -16 -14 -19 -14 -42 3 -24 18
-24 19 -6 39 22 24 21 24 47 11z m-631 -39 c0 -14 -18 -23 -30 -16 -6 4 -8 11
-5 16 8 12 35 12 35 0z m765 -11 c3 -6 -1 -13 -10 -16 -19 -8 -30 0 -20 15 8
14 22 14 30 1z m285 -723 c0 -19 -21 -37 -42 -37 -21 0 -24 20 -6 38 16 16 48
15 48 -1z m-2684 -583 c5 -27 14 -39 40 -52 42 -19 43 -32 4 -54 -17 -10 -30
-25 -30 -37 0 -54 -34 -71 -45 -22 -7 35 -31 58 -65 63 -39 5 -36 32 5 47 25
9 37 20 41 39 10 46 13 52 28 52 9 0 18 -14 22 -36z m212 -41 c-4 -22 -22 -20
-26 1 -2 10 3 16 13 16 10 0 15 -7 13 -17z m-506 -8 c0 -5 -5 -11 -11 -13 -6
-2 -11 4 -11 13 0 9 5 15 11 13 6 -2 11 -8 11 -13z m51 -120 c1 -5 -6 -11 -15
-13 -11 -2 -18 3 -18 13 0 17 30 18 33 0z m470 -9 c21 -16 21 -25 -1 -54 l-18
-23 -24 25 c-23 25 -23 26 -5 46 21 23 24 24 48 6z m-533 -81 c0 -8 -4 -15 -9
-15 -13 0 -22 16 -14 24 11 11 23 6 23 -9z m203 -13 c15 -17 15 -21 0 -55 -20
-43 -30 -46 -42 -13 -5 13 -17 26 -27 30 -15 6 -15 9 6 31 28 30 41 31 63 7z
m207 -27 c0 -8 -7 -15 -15 -15 -8 0 -15 7 -15 15 0 8 7 15 15 15 8 0 15 -7 15
-15z m1896 -22 c8 -32 32 -63 49 -63 7 0 18 -6 24 -14 9 -11 6 -18 -18 -36
-17 -12 -34 -35 -39 -53 -11 -43 -38 -47 -47 -7 -5 21 -19 39 -46 56 -21 13
-39 27 -39 30 0 3 16 12 35 20 24 10 36 22 41 42 10 45 13 52 23 52 6 0 14
-12 17 -27z m-1706 -48 c0 -8 -7 -15 -15 -15 -8 0 -15 7 -15 15 0 8 7 15 15
15 8 0 15 -7 15 -15z m-255 -4 c7 -12 -12 -24 -25 -16 -11 7 -4 25 10 25 5 0
11 -4 15 -9z m1735 -16 c0 -8 -7 -15 -15 -15 -16 0 -20 12 -8 23 11 12 23 8
23 -8z m-1530 -51 c0 -24 19 -47 51 -64 27 -15 24 -33 -10 -58 -16 -12 -32
-35 -36 -52 -9 -41 -35 -36 -50 9 -11 35 -17 40 -69 60 -23 10 -26 14 -16 26
7 8 18 15 25 15 19 0 55 49 55 74 0 12 6 28 12 34 16 16 38 -10 38 -44z m325
27 c15 -18 16 -24 4 -50 -17 -38 -25 -38 -55 -5 -29 31 -29 31 -1 55 28 23 30
23 52 0z m1125 -5 c0 -20 -19 -31 -32 -18 -6 6 -7 15 -4 21 10 16 36 13 36 -3z
m84 -72 c20 -8 21 -38 1 -54 -17 -14 -43 -7 -51 15 -6 15 11 45 26 45 5 0 15
-3 24 -6z m-1123 -39 c-1 -15 -24 -12 -29 3 -3 9 2 13 12 10 10 -1 17 -7 17
-13z m-168 -10 c1 -5 -6 -11 -15 -13 -11 -2 -18 3 -18 13 0 17 30 18 33 0z
m1077 -50 c0 -8 -7 -15 -15 -15 -8 0 -15 7 -15 15 0 8 7 15 15 15 8 0 15 -7
15 -15z m-1487 -10 c1 -5 -6 -11 -15 -13 -11 -2 -18 3 -18 13 0 17 30 18 33 0z
m477 -10 c0 -8 -7 -15 -15 -15 -16 0 -20 12 -8 23 11 12 23 8 23 -8z m1345 5
c3 -5 1 -10 -4 -10 -6 0 -11 5 -11 10 0 6 2 10 4 10 3 0 8 -4 11 -10z m-1249
-91 c3 -6 1 -16 -5 -22 -9 -9 -14 -8 -21 3 -9 15 -4 30 10 30 5 0 12 -5 16
-11z m-659 -528 c98 -44 149 -126 141 -227 -13 -159 -166 -240 -406 -216 -52
5 -98 14 -104 20 -8 8 -3 20 16 42 25 31 26 35 26 169 0 131 -1 140 -25 175
-14 20 -25 39 -25 41 0 15 83 24 195 22 111 -2 138 -6 182 -26z m1781 -54 l3
-67 35 0 c31 0 35 -3 32 -22 -2 -18 -11 -24 -35 -26 l-33 -3 0 -98 c0 -101 5
-115 43 -122 26 -6 24 -20 -5 -42 -49 -37 -171 -17 -198 32 -5 11 -10 67 -10
125 0 101 -1 105 -22 108 -30 4 -39 48 -11 48 29 0 94 47 133 96 49 61 64 55
68 -29z m963 -40 c28 -19 35 -30 37 -64 2 -32 -2 -47 -17 -62 -26 -26 -92 -28
-115 -5 -19 18 -21 65 -4 82 20 20 0 26 -26 8 -30 -19 -56 -97 -56 -166 0 -33
7 -58 24 -83 36 -52 19 -62 -104 -62 -122 0 -142 11 -105 59 34 44 36 155 5
186 -30 30 -25 47 18 61 20 6 57 23 81 37 42 25 44 25 57 7 8 -10 14 -26 14
-34 0 -10 8 -7 28 12 53 51 110 60 163 24z m-2250 -13 c54 -32 70 -64 82 -160
6 -58 17 -99 29 -117 11 -15 18 -34 15 -41 -7 -18 -114 -30 -149 -17 -37 14
-46 36 -54 129 l-7 81 -29 -20 c-16 -12 -36 -32 -45 -45 -21 -32 -6 -67 39
-90 l32 -17 -28 -23 c-53 -46 -179 -19 -205 45 -30 71 7 114 130 155 91 30 94
32 94 61 0 25 -4 31 -26 33 -20 2 -32 -5 -53 -32 -34 -45 -80 -50 -98 -11 -25
55 59 97 179 91 37 -2 75 -11 94 -22z m959 4 c55 -21 76 -62 45 -88 -24 -20
-63 -3 -90 40 -25 40 -53 50 -84 31 -29 -18 -1 -48 80 -85 91 -41 139 -82 139
-120 0 -77 -61 -117 -190 -124 -47 -2 -103 1 -125 7 -79 21 -111 83 -60 117
34 22 58 11 99 -46 32 -45 40 -50 74 -50 45 0 65 16 52 40 -5 9 -45 33 -89 54
-104 49 -141 83 -141 129 0 62 42 93 150 111 32 5 107 -4 140 -16z m747 -1
c48 -25 70 -71 83 -172 8 -64 17 -96 31 -111 36 -38 25 -49 -61 -60 -99 -13
-130 22 -130 147 l0 68 -35 -20 c-66 -39 -75 -103 -17 -128 82 -37 -15 -89
-115 -62 -52 14 -83 51 -83 100 0 60 56 100 176 125 43 10 72 41 58 64 -6 9
-23 18 -37 20 -19 2 -29 -4 -43 -28 -31 -51 -95 -52 -102 -1 -5 31 13 49 67
66 57 18 164 14 208 -8z m-1323 0 c16 -12 17 -18 6 -48 -11 -32 -10 -42 20
-113 31 -75 34 -78 45 -55 7 13 21 50 31 82 18 57 18 60 0 90 -17 30 -17 32 0
44 24 17 105 17 130 -1 18 -14 18 -16 -18 -53 -24 -25 -52 -74 -81 -143 -87
-208 -128 -269 -193 -290 -80 -27 -181 42 -153 104 13 27 51 41 75 28 9 -5 25
-26 37 -47 46 -81 71 -36 37 65 -30 89 -113 251 -144 279 -54 50 -26 70 100
71 60 0 96 -4 108 -13z m1807 -569 c0 -13 0 -101 -1 -196 -2 -173 -1 -174 25
-214 37 -56 26 -63 -99 -63 -127 0 -149 11 -111 57 24 28 25 35 25 168 0 129
-2 141 -21 159 -12 11 -19 25 -17 31 4 12 152 77 181 79 11 1 17 -7 18 -21z
m-2813 -13 c12 -9 60 -63 108 -120 47 -58 87 -105 90 -105 2 0 4 33 4 74 0 65
-3 78 -25 104 -27 32 -22 43 23 57 34 10 112 -4 119 -21 3 -7 -7 -28 -21 -45
-25 -30 -26 -34 -26 -173 0 -79 5 -157 11 -175 8 -24 8 -35 -1 -46 -17 -20
-85 -19 -118 1 -15 9 -74 74 -132 144 l-105 128 -3 -95 c-3 -90 -1 -97 24
-130 35 -46 22 -58 -61 -58 -83 0 -96 12 -61 58 25 33 26 38 26 177 0 137 -1
143 -25 172 -14 16 -25 34 -25 39 0 30 159 40 198 14z m1040 -68 l3 -67 33 0
c22 0 36 -6 40 -16 9 -24 -2 -34 -40 -34 l-34 0 0 -93 c0 -98 9 -122 45 -129
31 -5 24 -31 -15 -51 -65 -34 -169 -4 -189 54 -6 18 -11 74 -11 125 0 88 -1
93 -22 96 -39 5 -28 38 17 53 26 9 59 35 95 74 30 33 60 58 65 57 6 -1 11 -33
13 -69z m989 -27 c24 0 73 -56 73 -84 0 -14 -11 -37 -24 -52 -28 -34 -84 -38
-116 -9 -24 22 -26 47 -4 80 19 29 9 32 -24 9 -34 -23 -52 -78 -52 -157 0 -58
4 -75 21 -93 40 -43 5 -64 -106 -64 -111 0 -146 21 -106 64 18 19 21 35 21 99
0 66 -3 79 -20 89 -29 18 -25 37 11 50 17 6 55 24 84 39 55 29 63 28 79 -15 6
-18 8 -17 35 8 29 28 76 47 99 40 8 -2 20 -4 29 -4z m-1370 -22 c64 -19 103
-100 103 -212 0 -28 7 -52 20 -69 11 -14 20 -30 20 -36 0 -34 -132 -44 -171
-12 -21 17 -25 30 -29 109 l-5 90 -40 -27 c-60 -40 -62 -110 -5 -130 27 -9 30
-13 21 -29 -13 -25 -32 -32 -86 -32 -99 0 -158 57 -136 132 13 44 47 65 148
93 70 20 86 33 81 67 -5 34 -50 37 -72 4 -36 -56 -84 -67 -107 -25 -37 71 123
119 258 77z m683 3 c5 -11 10 -76 10 -144 0 -102 3 -127 16 -138 14 -11 20
-10 40 14 20 23 24 39 24 92 0 54 -3 67 -20 77 -33 21 -24 44 23 58 23 7 64
23 91 37 47 24 50 24 63 7 9 -12 13 -55 13 -143 0 -113 2 -127 21 -147 39 -42
5 -64 -97 -64 -44 0 -84 25 -84 52 0 6 -13 -1 -30 -17 -23 -22 -41 -29 -83
-33 -105 -8 -147 40 -147 168 0 59 -3 72 -20 82 -33 21 -24 44 23 58 23 7 62
23 87 36 55 28 57 29 70 5z m1095 -4 c32 -16 66 -50 77 -77 5 -14 13 -60 18
-102 6 -54 16 -87 31 -108 17 -23 20 -33 11 -42 -14 -14 -111 -23 -147 -14
-36 9 -55 59 -55 147 l0 71 -37 -28 c-47 -35 -53 -43 -53 -73 0 -30 26 -61 52
-61 10 0 18 -6 18 -14 0 -25 -42 -46 -93 -46 -82 0 -137 43 -137 106 0 59 46
93 166 124 52 13 83 44 68 68 -19 30 -50 26 -76 -8 -28 -39 -62 -54 -89 -40
-19 11 -25 45 -11 66 30 45 191 65 257 31z"/>
<path d="M3310 6166 c0 -2 7 -7 16 -10 8 -3 12 -2 9 4 -6 10 -25 14 -25 6z"/>
<path d="M3392 6155 c-20 -11 -21 -13 -7 -19 28 -10 37 -7 31 10 -6 15 -4 15
10 3 15 -12 17 -12 13 0 -7 20 -20 21 -47 6z"/>
<path d="M3355 6120 c-3 -5 -1 -10 4 -10 6 0 11 5 11 10 0 6 -2 10 -4 10 -3 0
-8 -4 -11 -10z"/>
<path d="M3606 5977 c3 -10 9 -15 12 -12 3 3 0 11 -7 18 -10 9 -11 8 -5 -6z"/>
<path d="M3700 5940 c-13 -8 -12 -10 3 -10 9 0 17 5 17 10 0 12 -1 12 -20 0z"/>
<path d="M3555 5920 c-3 -5 -1 -10 4 -10 6 0 11 5 11 10 0 6 -2 10 -4 10 -3 0
-8 -4 -11 -10z"/>
<path d="M3598 5903 c6 -2 18 -2 25 0 6 3 1 5 -13 5 -14 0 -19 -2 -12 -5z"/>
<path d="M3748 5893 c7 -3 16 -2 19 1 4 3 -2 6 -13 5 -11 0 -14 -3 -6 -6z"/>
<path d="M3644 5858 c0 -12 4 -14 13 -7 15 13 33 3 33 -17 0 -8 5 -14 10 -14
13 0 13 17 -1 25 -6 4 -8 12 -6 19 3 6 -6 11 -22 11 -18 0 -27 -5 -27 -17z"/>
<path d="M3435 5850 c3 -5 8 -10 11 -10 2 0 4 5 4 10 0 6 -5 10 -11 10 -5 0
-7 -4 -4 -10z"/>
<path d="M3768 5782 c5 -9 7 -23 5 -29 -3 -7 0 -13 6 -13 15 0 9 48 -6 55 -10
3 -11 0 -5 -13z"/>
<path d="M3800 5732 c0 -4 10 -9 22 -9 18 -2 20 0 8 7 -18 12 -30 13 -30 2z"/>
<path d="M3760 5716 c0 -2 8 -10 18 -17 15 -13 16 -12 3 4 -13 16 -21 21 -21
13z"/>
<path d="M3621 5684 c0 -11 3 -14 6 -6 3 7 2 16 -1 19 -3 4 -6 -2 -5 -13z"/>
<path d="M3727 5649 c7 -7 15 -10 18 -7 3 3 -2 9 -12 12 -14 6 -15 5 -6 -5z"/>
<path d="M3536 5535 c-3 -8 -1 -15 3 -15 5 0 11 7 15 15 3 8 1 15 -3 15 -5 0
-11 -7 -15 -15z"/>
<path d="M3590 5530 c0 -5 -12 -13 -26 -16 l-27 -7 23 -12 c17 -9 19 -14 9
-18 -10 -4 -10 -6 -1 -6 6 -1 12 -6 12 -12 0 -7 -10 -9 -25 -5 l-26 7 21 -21
c16 -16 24 -18 46 -10 15 6 29 9 31 6 3 -2 -5 -7 -16 -11 -12 -3 -19 -11 -16
-16 9 -13 55 -11 55 3 0 6 3 8 7 5 3 -4 12 -2 19 4 9 7 12 6 10 -8 -2 -10 4
-29 13 -43 15 -24 15 -25 -4 -9 -38 31 -45 32 -45 4 0 -19 4 -26 14 -22 7 3
18 1 24 -5 5 -5 19 -7 30 -4 15 5 19 13 16 31 -2 14 -5 35 -7 48 -2 12 -10 33
-17 47 l-14 25 -6 -25 -7 -25 -7 27 c-4 14 -16 34 -26 43 -18 16 -20 16 -35 1
-9 -9 -19 -16 -23 -16 -3 0 -1 5 6 12 15 15 16 38 2 38 -5 0 -10 -4 -10 -10z
m60 -60 c0 -5 -12 -10 -27 -9 l-28 1 25 8 c14 4 26 8 28 9 1 1 2 -3 2 -9z"/>
<path d="M3505 5500 c3 -5 11 -10 16 -10 6 0 7 5 4 10 -3 6 -11 10 -16 10 -6
0 -7 -4 -4 -10z"/>
<path d="M3543 5390 c1 -11 5 -20 9 -20 3 0 6 9 5 20 -1 11 -5 20 -9 20 -3 0
-6 -9 -5 -20z"/>
<path d="M3776 5392 c-3 -5 10 -24 29 -42 23 -22 35 -29 35 -19 0 8 -5 20 -12
27 -7 7 -8 12 -3 12 10 0 -26 29 -37 30 -4 0 -9 -4 -12 -8z"/>
<path d="M3305 5363 c-15 -27 -16 -27 -9 -3 5 20 4 23 -7 13 -8 -9 -10 -19 -3
-33 9 -20 11 -19 27 14 20 42 15 48 -8 9z"/>
<path d="M3588 5384 c-5 -4 -8 -19 -8 -33 0 -18 3 -22 11 -14 6 6 9 21 7 33
-1 12 -6 18 -10 14z"/>
<path d="M3220 5323 c-14 -14 -24 -35 -23 -47 2 -15 -1 -13 -12 9 -16 34 -20
20 -5 -19 11 -30 30 -34 30 -7 0 11 6 26 13 33 11 10 30 59 24 58 -1 0 -13
-12 -27 -27z"/>
<path d="M3552 5320 c0 -14 2 -19 5 -12 2 6 2 18 0 25 -3 6 -5 1 -5 -13z"/>
<path d="M3850 5327 c0 -8 7 -17 15 -21 8 -3 15 -2 15 3 0 5 -7 14 -15 21 -12
10 -15 10 -15 -3z"/>
<path d="M3912 5314 c10 -10 20 -16 22 -13 3 3 -5 11 -17 18 -21 13 -21 12 -5
-5z"/>
<path d="M3235 5277 c-8 -13 -17 -39 -21 -58 -5 -30 -4 -32 7 -14 7 11 20 26
28 33 9 8 10 10 3 7 -11 -6 -12 -3 -3 14 7 11 14 21 17 21 3 0 2 -5 -2 -12 -4
-7 -3 -8 4 -4 12 7 5 36 -9 36 -5 0 -15 -10 -24 -23z"/>
<path d="M3930 5282 c0 -5 7 -9 15 -9 8 0 15 4 15 9 0 4 -7 8 -15 8 -8 0 -15
-4 -15 -8z"/>
<path d="M3725 5217 l-60 -21 35 -7 c19 -3 52 -9 73 -12 36 -6 38 -4 31 16
-13 44 -16 45 -79 24z"/>
<path d="M3390 5140 c-78 -11 -208 -64 -293 -120 -138 -91 -297 -281 -373
-446 -56 -120 -77 -229 -71 -364 11 -241 102 -441 286 -633 139 -145 281 -226
485 -277 65 -17 123 -30 129 -30 6 0 8 28 3 83 l-7 82 -68 70 c-84 87 -116
129 -174 230 -120 207 -144 426 -71 657 52 166 118 277 261 441 87 100 176
171 275 219 52 26 67 37 65 53 -2 16 -14 23 -57 32 -76 15 -233 16 -248 1 -9
-9 -12 -9 -12 0 0 13 -42 14 -130 2z m290 -79 c0 -5 -35 -34 -77 -64 -97 -69
-143 -112 -217 -204 -32 -40 -61 -73 -65 -73 -19 0 -19 15 1 44 72 104 213
237 303 285 44 23 55 26 55 12z m-805 -453 c-33 -73 -59 -162 -75 -256 -8 -50
-16 -72 -26 -72 -40 0 23 265 88 366 40 64 48 41 13 -38z m415 50 c0 -17 -50
-98 -60 -98 -22 0 -5 55 28 93 17 20 32 22 32 5z m-537 -231 c-27 -107 -23
-264 11 -392 17 -64 22 -103 16 -109 -13 -13 -37 47 -61 153 -33 151 -21 332
29 426 25 46 27 8 5 -78z m42 -244 c5 -35 4 -43 -8 -43 -18 0 -31 50 -22 81 9
29 21 13 30 -38z m639 -823 c81 -27 109 -50 62 -50 -29 0 -160 46 -196 69 -57
36 -46 60 13 29 23 -12 78 -33 121 -48z"/>
<path d="M4394 4692 c-176 -153 -262 -292 -323 -524 -21 -81 -36 -217 -22
-202 5 5 30 61 56 124 26 63 52 121 57 128 13 15 28 16 28 1 0 -13 -92 -244
-121 -303 -10 -22 -19 -44 -19 -49 0 -15 145 110 197 170 155 179 226 351 252
609 14 139 7 142 -105 46z m86 14 c0 -16 -93 -160 -110 -171 -19 -12 -24 3
-11 31 17 39 101 154 112 154 5 0 9 -6 9 -14z m-140 -215 c0 -12 -31 -43 -37
-37 -9 9 9 46 23 46 8 0 14 -4 14 -9z m-56 -93 c-10 -34 -77 -148 -86 -148
-23 0 19 106 60 153 21 24 35 21 26 -5z"/>
<path d="M5023 4586 c1 -17 9 -31 17 -33 10 -3 11 -2 4 4 -7 4 -14 19 -17 33
-4 22 -5 21 -4 -4z"/>
<path d="M3617 4538 c-81 -141 -143 -337 -154 -484 -8 -111 10 -217 69 -413
27 -91 52 -194 55 -229 3 -34 9 -65 14 -68 17 -10 24 78 22 274 -1 157 2 202
12 202 18 0 25 -69 26 -264 l1 -171 34 70 c52 108 74 209 86 399 9 145 8 188
-7 300 -10 72 -26 165 -37 206 -20 80 -77 220 -89 220 -4 0 -18 -19 -32 -42z
m37 -43 c3 -9 1 -57 -4 -108 -5 -51 -10 -135 -10 -187 0 -119 -16 -153 -34
-76 -7 27 9 313 20 364 5 25 19 29 28 7z m-19 -490 c0 -10 -6 -20 -12 -22 -8
-3 -13 5 -13 22 0 17 5 25 13 23 6 -3 12 -13 12 -23z m11 -89 c3 -14 1 -33 -4
-43 -10 -16 -12 -16 -21 9 -11 29 -6 58 10 58 5 0 11 -11 15 -24z"/>
<path d="M4680 4254 c0 -8 5 -12 10 -9 6 4 8 11 5 16 -9 14 -15 11 -15 -7z"/>
<path d="M4607 4122 c-26 -20 -44 -38 -40 -39 15 -5 157 43 160 54 2 6 -6 8
-20 6 -14 -3 -28 0 -31 6 -10 16 -17 14 -69 -27z"/>
<path d="M4890 4132 c0 -5 7 -13 16 -16 10 -4 14 -1 12 6 -5 15 -28 23 -28 10z"/>
<path d="M4650 3904 c-172 -20 -405 -81 -503 -130 -63 -32 -157 -94 -157 -104
0 -4 11 -5 25 -2 33 6 32 -12 -1 -27 -15 -6 -24 -14 -22 -17 5 -5 78 -14 258
-34 149 -16 431 2 545 35 142 42 330 143 364 197 9 15 5 20 -26 33 -73 31
-160 45 -303 49 -80 2 -161 2 -180 0z m470 -85 c0 -4 -18 -13 -39 -19 -53 -14
-241 -31 -254 -23 -18 11 25 33 67 34 23 0 77 6 121 13 81 12 105 11 105 -5z
m-330 -29 c9 0 10 -3 5 -9 -10 -10 -37 -15 -270 -47 -66 -9 -135 -19 -152 -22
-24 -3 -33 0 -33 10 0 17 54 31 210 53 134 19 180 23 205 19 11 -2 27 -4 35
-4z m-497 -70 c28 0 -14 -20 -68 -33 -60 -14 -85 -13 -85 3 0 15 101 41 128
34 8 -2 19 -4 25 -4z m-188 -40 c-3 -5 -10 -10 -16 -10 -5 0 -9 5 -9 10 0 6 7
10 16 10 8 0 12 -4 9 -10z"/>
<path d="M3666 3308 l-26 -33 63 -3 c34 -2 78 0 97 4 l35 7 -50 22 c-88 39
-90 39 -119 3z"/>
<path d="M2336 2417 c-14 -11 -16 -35 -14 -186 3 -153 5 -175 21 -185 21 -13
42 -2 71 38 17 22 21 45 24 134 3 96 1 112 -20 151 -25 49 -56 67 -82 48z"/>
</g>
</svg>
